<svg class="icon" viewBox="0 0 1024 1024" xmlns="http://www.w3.org/2000/svg" width="200" height="200"><defs><style/></defs><path d="M904.698 201.835c-17.684-11.842-42.99-26.224-62.261-36.315-21.426-11.248-42.043-24.482-63.147-36.657-42.079-24.298-83.79-47.587-125.003-72.147C633.67 44.42 612.131 33.478 591.73 20.69 572.971 8.944 542.826 0 512.614 0h-6.159c-26.32 0-60.51 11.484-76.667 21.907-20.193 13.035-41.808 23.51-62.323 36.253-40.579 25.174-83.518 47.746-125.105 72.045-20.013 11.683-43.927 23.817-62.445 36.114-19.542 12.974-42.402 22.983-62.338 36.253-32.428 21.564-70.724 73.376-70.724 126.421v365.958c0 53.316 38.306 104.442 70.975 126.175 38.152 25.384 84.22 49.067 124.537 72.613 41.598 24.298 84.542 46.85 125.105 72.05 20.49 12.717 41.93 23.694 62.558 36.017 18.088 10.803 47.598 22.143 76.432 22.143h13.557c46.636 0 105.415-39.258 137.275-58.652 41.056-24.989 82.715-47.23 124.353-71.553 39.811-23.264 86.355-47.132 123.8-72.121 31.814-21.242 71.712-72.577 71.712-124.205V326.531c-.01-52.37-40.2-103.096-72.46-124.696zm-29.659 596.12c-34.44 22.992-77.241 44.935-113.847 66.325-38.29 22.363-76.596 42.821-114.37 65.799-29.294 17.827-83.338 53.936-126.236 53.936h-12.467c-26.505 0-53.639-10.434-70.278-20.366-18.964-11.325-38.685-21.416-57.53-33.12-37.303-23.172-76.786-43.901-115.05-66.249-37.073-21.661-79.454-43.44-114.519-66.776-30.032-19.998-65.27-67.002-65.27-116.034V344.941c0-48.786 35.213-96.435 65.035-116.264 18.339-12.195 39.355-21.405 57.325-33.324 17.039-11.314 39.033-22.475 57.428-33.222 38.25-22.342 77.733-43.103 115.05-66.249 18.872-11.714 38.736-21.35 57.31-33.34 14.853-9.584 46.293-20.15 70.5-20.15h5.667c27.784 0 55.503 8.227 72.751 19.04 18.754 11.744 38.567 21.815 57.53 33.119 37.896 22.593 76.248 44.01 114.948 66.341 19.414 11.212 38.378 23.377 58.073 33.714 17.72 9.287 40.999 22.5 57.26 33.39 29.652 19.865 66.622 66.52 66.622 114.672v341.065c.01 47.49-36.688 94.69-65.932 114.221z" fill="#fff"/><path d="M526.656 570.6c.44-22.294 0 161.23 0 161.23h-29.314V585.258c0-60.08-49.483-102.602-102.602-102.602h-73.287c0 59.465 63.496 103.056 102.602 102.602h43.971v29.314h-42.418c-67.205 0-125.79-52.473-133.47-117.258V453.34h101.824c67.542 0 125.205 51.887 132.694 117.259zm-28.86-161.23c-.44-22.323-.454 58.614-.454 58.614l29.314 29.33.396-73.287c0-60.081 49.38-102.602 102.397-102.602h73.14c0 59.48-63.379 103.056-102.397 102.602H556.31v29.314h42.33c67.073 0 125.54-52.459 133.22-117.258V292.11H630.226c-67.41 0-124.954 51.886-132.43 117.258z" fill="#fff"/></svg>