<svg class="icon" viewBox="0 0 1024 1024" xmlns="http://www.w3.org/2000/svg" width="200" height="200"><defs><style/></defs><path d="M512.1 606.888c-9.46 0-18.705-2.016-24.719-5.395l-413.32-231.89a18.4 18.4 0 0 1-9.387-16.04 18.409 18.409 0 0 1 9.388-16.046l413.367-231.885c11.81-6.696 37.416-6.743 49.416.057l413.262 231.827a18.41 18.41 0 0 1 9.388 16.047 18.399 18.399 0 0 1-9.388 16.04l-413.334 231.91c-5.963 3.364-15.207 5.375-24.673 5.375zm-6.704-47.713c.19 0 2.874.682 6.71.682 3.974 0 6.633-.725 7.324-1.005l384.087-205.288-384.73-208.653c-.166 0-2.85-.69-6.682-.69-4.003 0-6.638.72-7.335 1L120.666 353.564l384.73 205.611zm430.509 215.766c-10.16 0-18.4-8.226-18.4-18.395v-284.76c0-10.166 8.24-18.401 18.4-18.401 10.156 0 18.395 8.236 18.395 18.4v284.76c0 10.17-8.238 18.396-18.395 18.396zm0 0" fill="#fff"/><path d="M513.96 923.096L194.724 755.708l90.552-303.777 228.686 114.93 228.687-114.93 90.555 303.777L513.96 923.096zm-268.238-182.9l268.239 139.387 269.265-139.387-69.885-227.814L512 600.434 316.632 514.43l-70.91 225.767z" fill="#fff"/></svg>