<svg class="icon" viewBox="0 0 1024 1024" xmlns="http://www.w3.org/2000/svg" width="200" height="200"><defs><style/></defs><path d="M770.015 611.094h-55.192c44.375-77.44 80.14-156.751 80.14-211.415 0-144.235-141.798-286.033-286.033-286.033S222.898 255.443 222.898 399.678c0 54.665 39.34 133.975 88.152 211.415h-57.46c-46.586-77.445-80.437-153.602-80.437-211.415C173.153 214.234 323.487 63.9 508.93 63.9s335.778 150.334 335.778 335.778c0 57.814-31.434 133.97-74.693 211.416zM508.93 561.349c-89.286 0-161.67-72.384-161.67-161.67s72.384-161.67 161.67-161.67 161.67 72.383 161.67 161.67-72.383 161.67-161.67 161.67zm0-273.596c-61.815 0-111.926 50.11-111.926 111.926s50.11 111.926 111.926 111.926 111.926-50.11 111.926-111.926-50.111-111.926-111.926-111.926zm12.436 596.937s75.906-89.834 131.714-174.106h55.94c-88.498 133.915-187.655 248.724-187.655 248.724s-106.784-114.81-202.09-248.725h59.692c61.39 84.273 142.4 174.107 142.4 174.107z" fill="#fff"/></svg>